<?xml version="1.0" encoding="utf-8"?>
<svg xmlns="http://www.w3.org/2000/svg" xmlns:xlink="http://www.w3.org/1999/xlink" style="margin: auto; background: none; display: block; shape-rendering: auto;" width="200px" height="200px" viewBox="0 0 100 100" preserveAspectRatio="xMidYMid">
<g transform="rotate(0 50 50)">
  <rect x="49.5" y="19" rx="0.5" ry="2.4" width="1" height="12" fill="#1a237e">
    <animate attributeName="opacity" values="1;0" keyTimes="0;1" dur="0.625s" begin="-0.5729166666666666s" repeatCount="indefinite"></animate>
  </rect>
</g><g transform="rotate(30 50 50)">
  <rect x="49.5" y="19" rx="0.5" ry="2.4" width="1" height="12" fill="#1a237e">
    <animate attributeName="opacity" values="1;0" keyTimes="0;1" dur="0.625s" begin="-0.5208333333333333s" repeatCount="indefinite"></animate>
  </rect>
</g><g transform="rotate(60 50 50)">
  <rect x="49.5" y="19" rx="0.5" ry="2.4" width="1" height="12" fill="#1a237e">
    <animate attributeName="opacity" values="1;0" keyTimes="0;1" dur="0.625s" begin="-0.46874999999999994s" repeatCount="indefinite"></animate>
  </rect>
</g><g transform="rotate(90 50 50)">
  <rect x="49.5" y="19" rx="0.5" ry="2.4" width="1" height="12" fill="#1a237e">
    <animate attributeName="opacity" values="1;0" keyTimes="0;1" dur="0.625s" begin="-0.41666666666666663s" repeatCount="indefinite"></animate>
  </rect>
</g><g transform="rotate(120 50 50)">
  <rect x="49.5" y="19" rx="0.5" ry="2.4" width="1" height="12" fill="#1a237e">
    <animate attributeName="opacity" values="1;0" keyTimes="0;1" dur="0.625s" begin="-0.36458333333333326s" repeatCount="indefinite"></animate>
  </rect>
</g><g transform="rotate(150 50 50)">
  <rect x="49.5" y="19" rx="0.5" ry="2.4" width="1" height="12" fill="#1a237e">
    <animate attributeName="opacity" values="1;0" keyTimes="0;1" dur="0.625s" begin="-0.31249999999999994s" repeatCount="indefinite"></animate>
  </rect>
</g><g transform="rotate(180 50 50)">
  <rect x="49.5" y="19" rx="0.5" ry="2.4" width="1" height="12" fill="#1a237e">
    <animate attributeName="opacity" values="1;0" keyTimes="0;1" dur="0.625s" begin="-0.26041666666666663s" repeatCount="indefinite"></animate>
  </rect>
</g><g transform="rotate(210 50 50)">
  <rect x="49.5" y="19" rx="0.5" ry="2.4" width="1" height="12" fill="#1a237e">
    <animate attributeName="opacity" values="1;0" keyTimes="0;1" dur="0.625s" begin="-0.20833333333333331s" repeatCount="indefinite"></animate>
  </rect>
</g><g transform="rotate(240 50 50)">
  <rect x="49.5" y="19" rx="0.5" ry="2.4" width="1" height="12" fill="#1a237e">
    <animate attributeName="opacity" values="1;0" keyTimes="0;1" dur="0.625s" begin="-0.15624999999999997s" repeatCount="indefinite"></animate>
  </rect>
</g><g transform="rotate(270 50 50)">
  <rect x="49.5" y="19" rx="0.5" ry="2.4" width="1" height="12" fill="#1a237e">
    <animate attributeName="opacity" values="1;0" keyTimes="0;1" dur="0.625s" begin="-0.10416666666666666s" repeatCount="indefinite"></animate>
  </rect>
</g><g transform="rotate(300 50 50)">
  <rect x="49.5" y="19" rx="0.5" ry="2.4" width="1" height="12" fill="#1a237e">
    <animate attributeName="opacity" values="1;0" keyTimes="0;1" dur="0.625s" begin="-0.05208333333333333s" repeatCount="indefinite"></animate>
  </rect>
</g><g transform="rotate(330 50 50)">
  <rect x="49.5" y="19" rx="0.5" ry="2.4" width="1" height="12" fill="#1a237e">
    <animate attributeName="opacity" values="1;0" keyTimes="0;1" dur="0.625s" begin="0s" repeatCount="indefinite"></animate>
  </rect>
</g>
<!-- [ldio] generated by https://loading.io/ --></svg>